PathFileType	4	(X/Y/Z)	Patient4_TMGait_0pt2_01_right_17.trc.trc
DataRate	CameraRate	NumFrames	NumMarkers	Units	OrigDataRate	OrigDataStartFrame	OrigNumFrames
42.424242424242	42.424242424242	5	33	mm	42.424242424242	71	       141
Frame#	Time	Sacral			L.Shoulder			Chest			R.Shoulder			Neck			R.ASIS			L.ASIS			R.Thigh.Superior			R.Thigh.Lateral			R.Thigh.Inferior			R.Patella			L.Thigh.Superior			L.Thigh.Lateral			L.Thigh.Inferior			L.Patella			L.Shank.Superior			L.Shank.Lateral			L.Shank.Inferior			R.Shank.Superior			R.Shank.Lateral			R.Shank.Inferior			R.Heel			R.Midfoot.Superior			R.Midfoot.Lateral			R.Toe			L.Heel			L.Midfoot.Lateral			L.Midfoot.Superior			L.Toe			L.Elbow			L.Wrist			R.Elbow			R.Wrist			
		X1	Y1	Z1	X2	Y2	Z2	X3	Y3	Z3	X4	Y4	Z4	X5	Y5	Z5	X6	Y6	Z6	X7	Y7	Z7	X8	Y8	Z8	X9	Y9	Z9	X10	Y10	Z10	X11	Y11	Z11	X12	Y12	Z12	X13	Y13	Z13	X14	Y14	Z14	X15	Y15	Z15	X16	Y16	Z16	X17	Y17	Z17	X18	Y18	Z18	X19	Y19	Z19	X20	Y20	Z20	X21	Y21	Z21	X22	Y22	Z22	X23	Y23	Z23	X24	Y24	Z24	X25	Y25	Z25	X26	Y26	Z26	X27	Y27	Z27	X28	Y28	Z28	X29	Y29	Z29	X30	Y30	Z30	X31	Y31	Z31	X32	Y32	Z32	X33	Y33	Z33	

71	39.480000000000	684.661723637552	1000.630853930486	607.264121073417	819.846869973733	1424.992100308616	392.328050256133	954.728440350720	1357.401550245701	528.324432717701	911.701007712996	1431.692880780104	714.940980872000	833.016509676596	1487.263476595277	547.816316051051	929.526063621676	930.848606200573	677.752046602554	866.669270543971	957.381460993875	410.772432888514	943.005004867882	723.850763019451	630.992858335508	861.004482059209	614.169015601013	695.741729904351	917.512396769517	563.087986668190	601.350687725156	907.736984971662	471.433726627971	602.493600897331	938.940249168926	764.380967287563	427.242566757307	874.207733362066	641.763265437533	349.368653476028	978.099336669810	578.984550827362	401.781634875350	995.804591269636	514.093187577742	396.296859715224	981.923864044964	443.516355452488	379.497520684818	915.397725864075	317.688652530980	318.722866945102	1003.259747213115	214.336591831851	365.206900325403	863.761692146153	387.051723833588	607.733186017218	782.838202857634	290.400426564836	671.172633492655	799.777018336855	196.824663378697	597.280081292243	641.041398568230	43.881274612149	568.484050862329	815.040214890461	95.463813695549	599.614749592600	726.538918068422	36.919315185844	640.379947518705	934.608085016047	40.764013512822	623.131546322239	913.792411882200	39.190715339429	389.024943147678	991.903110946469	41.945245639578	312.884105904225	1065.785592779308	114.692759591940	339.214064120556	1198.699094541499	78.828118548552	318.587421726901	676.895896496014	1099.599275309992	319.288063108730	633.252213785072	844.376389624477	359.436987612926	1107.560678473615	1157.879748890638	827.405631677650	1356.375518822813	1204.219942312809	781.019589094891	
72	39.503571428571	685.142885527072	1000.061139237139	604.788526947331	819.840895015765	1423.935056748116	388.845123781706	954.829325113713	1356.800412367941	525.082029491373	911.523424028563	1431.438548329212	711.409008593404	832.801846370245	1486.680078011252	544.198937693802	929.927566427938	930.509945388363	675.880983086681	867.287035584728	956.376860882090	408.788421751141	942.128065101307	722.952176614507	629.787578891567	858.758899638628	613.998472896376	694.548389866480	914.960676392272	562.170003642183	600.617213883681	904.163160233926	470.723580606568	601.803929809336	939.206277977497	762.575863846188	425.797866282721	873.016509279124	639.969963481775	348.960130412083	976.712351363986	577.175443948643	401.311148221930	993.057540049378	511.995944085730	396.404041484687	979.593495301010	441.388064881693	379.660513621449	912.767591754488	315.751630883291	319.474736997879	1000.048875240015	212.437268260698	366.580356131150	859.997623865798	386.555628232395	607.145332540754	778.633055150166	290.366573575506	670.674714919467	795.330576171730	196.543525029172	597.015956417381	636.265375215688	43.781060793923	568.428746257840	810.200334121063	95.402338902105	599.511059468039	721.739598497404	36.883276656760	640.341498636845	929.815176551640	40.788053623580	623.173464636228	909.460602832304	38.776445780936	390.652132852440	987.735363986330	40.947181880537	314.644221449544	1062.252940285345	112.515184657890	341.505708458782	1194.698939790092	75.161406645329	321.079093507316	680.131239498323	1096.758273022110	316.256805041236	638.574277328999	841.110560719021	355.957182638155	1109.224848981948	1158.797348106319	822.392112399766	1357.046856391952	1207.162415777479	773.797940989750	
73	39.527142857143	685.920562224998	999.503508982239	601.997222436688	820.225293412654	1422.816797496177	384.994624176232	955.218550937825	1356.216325834170	521.607723619155	911.476834265365	1431.288601223750	707.593220349096	832.812146632164	1486.100418460329	540.208582259485	930.537843413686	930.180268337729	673.904095954719	868.352534295351	955.408152090200	406.651839014819	941.478930466984	722.044011053967	628.467912709179	856.687907715033	613.844319131800	693.181936055292	912.612704025526	561.248690772343	599.749909209348	900.799255865005	470.017641523279	600.972232463097	940.027535515516	760.884723727590	424.264354413853	872.580808251128	638.308525353538	348.316053398796	975.958503027641	575.405988413731	400.782775780534	991.121197979084	509.921432251978	396.370308455450	977.801864744407	439.247273617630	379.700948746321	910.338691450441	313.983754664243	319.958468265147	996.652035332776	210.377040923794	367.738246375547	856.384552924582	386.071194773950	606.422986112150	774.554045799453	290.404288350883	670.111590751727	790.959878306001	196.296542807273	596.700567343718	631.509575351208	43.739722817646	568.371241738318	805.330709126488	95.280095360441	599.294408778490	716.960029811318	36.859051254639	640.287870248526	925.037962148580	40.784326649900	623.216144366083	904.309745783063	38.442154722990	391.987005180563	982.739211466815	39.890695386868	316.070571441949	1058.168684078271	110.018588042294	343.551470877810	1190.072793396203	70.778078738614	323.216266057014	683.801696886555	1093.914534583444	312.475830127713	644.470013741644	837.841505229645	351.483223691278	1110.354078498918	1159.369623169055	817.503151133234	1357.419577330812	1208.852720735610	766.869302526083	
74	39.550714285714	686.968225064628	999.041867769303	598.891686148039	820.996336966365	1421.737349377710	380.846397652911	955.909177620335	1355.711319268458	517.933019323708	911.622074508810	1431.282162897745	703.541512346504	833.078711260968	1485.592751493893	535.917347975783	931.343188091553	929.900250315315	671.772210590506	869.819488995818	954.576242165210	404.325191476476	940.983193228105	721.166518247260	626.996452632736	854.724453714713	613.763989114802	691.638757661037	910.381585415484	560.370191876847	598.739992111664	897.563885888686	469.372451093582	600.008598278531	941.352263594942	759.425538066492	422.566719036474	872.880966121515	636.866872473955	347.353029918443	975.845346938466	573.780267305741	400.090384439871	990.044229113423	508.003774038466	396.121022822891	976.639010483932	437.232863651950	379.565361936856	908.343128073856	312.462921772087	320.075949444349	993.351409894837	208.309229106438	368.616842861218	852.861131650744	385.656942181299	605.582823659453	770.551599672561	290.559730840435	669.495246017494	786.650394213443	196.127840127995	596.346462048743	626.780813436189	43.789414928529	568.313078967917	800.456608357836	95.116628019460	598.989750805260	712.207281012532	36.861297022138	640.218206764962	920.281498014205	40.743048165744	623.258916314292	898.803483461724	38.199912487211	392.968623930497	977.382034399711	38.851337963990	317.117271149105	1053.876248719582	107.423920968769	345.261630073983	1185.217880571969	66.101087308129	324.957349973840	687.777886756993	1091.259854513093	308.016716075373	650.731826097345	834.764639546278	346.090119843469	1111.140709713586	1159.721283376931	812.752986805385	1357.677959942074	1209.598402112569	760.274876900044	
75	39.574285714286	688.239550952153	998.746021116708	595.467757144805	822.144751266688	1420.784266985130	376.470421141658	956.904912591247	1355.331324807155	514.092060245842	912.006606366427	1431.437548786716	699.304302142475	833.627126246630	1485.211486282046	531.400434963737	932.314037058076	929.702250958933	669.437158939796	871.629605324350	953.960253406467	401.770025499931	940.567994627718	720.358160111506	625.343334285112	852.810181781915	613.807909863900	689.919133945889	908.199115823743	559.578107603788	597.584404569521	894.398279208005	468.835777715091	598.928963954653	943.130550678559	758.310532234463	420.665365224007	873.915628906770	635.716750335095	346.032124646985	976.400022468476	572.399446054213	399.173721975005	989.863143953849	506.344571338673	395.629958347374	976.172470861340	435.447217840083	379.241033575251	906.947022485960	311.261244461056	319.792627428000	990.328425504232	206.365816468721	369.207598286765	849.385570266126	385.362922211287	604.646102591185	766.586121197286	290.875605790579	668.835853790703	782.395360821531	196.077589956266	595.968142685585	622.086505235237	43.967312262725	568.256456547617	795.611789904805	94.941963004401	598.638015446047	707.488384448036	36.909292465027	640.133877848568	915.550394297897	40.655021676563	623.301766482947	893.271863350903	38.061967156930	393.595681215712	971.987494614650	37.911251903759	317.790609452825	1049.584557079777	104.941605771467	346.596416713449	1180.386000789799	61.526991240559	326.282482496027	691.960782445111	1088.941247860982	302.969150908212	657.179091445165	832.030938820201	339.876547922544	1111.760462316997	1159.965566008183	808.143647781337	1357.977522338174	1209.685413279167	754.055193423825	
